<svg xmlns="http://www.w3.org/2000/svg" width="48" height="48" fill="none" id="qq"><path fill="#fff" d="M0 24C0 10.745 10.745 0 24 0s24 10.745 24 24-10.745 24-24 24S0 37.255 0 24Z"></path><path fill="#E48013" d="M34.568 37.874c-.184 1.46-2.568 2.36-5.322 2.01-2.753-.351-4.835-1.82-4.648-3.282.186-1.46 2.569-2.36 5.322-2.01 2.754.351 4.834 1.82 4.648 3.282zm-20.778-.142c.217 1.465 2.693 2.403 5.533 2.096 2.84-.308 4.966-1.744 4.75-3.21-.217-1.464-2.696-2.402-5.535-2.094-2.84.307-4.967 1.744-4.748 3.209z"></path><path fill="#000" d="M34.322 18.687c0 5.46-4.46 9.887-9.964 9.887-5.501 0-9.962-4.428-9.962-9.887 0-5.461 4.461-9.887 9.962-9.887 5.504 0 9.964 4.426 9.964 9.887Z"></path><path fill="#F5A519" d="M13.702 37.441c.217 1.465 2.693 2.402 5.534 2.096 2.84-.308 4.965-1.745 4.749-3.21-.216-1.464-2.695-2.403-5.535-2.095-2.84.307-4.967 1.744-4.748 3.21zm20.979.079c-.185 1.46-2.569 2.36-5.323 2.01-2.752-.351-4.835-1.82-4.648-3.282.186-1.46 2.57-2.36 5.322-2.01 2.754.351 4.834 1.82 4.649 3.282z"></path><path fill="#000" d="M33.824 29.637c0 4.423-4.305 8.008-9.613 8.008S14.6 34.06 14.6 29.636c0-4.423 4.303-8.008 9.611-8.008 5.308 0 9.613 3.585 9.613 8.009Z"></path><path fill="#000" d="M16.173 28.045c-1.411 2.817-3.625 4.6-4.283 4.25-.87-.464-1.08-3.31.332-6.125 1.414-2.815 3.692-4.62 4.784-4.073 1.088.548.579 3.132-.833 5.948zM32.4 28.4c1.291 2.559 3.151 4.545 3.946 4.37.642-.14 1.1-3.134-.075-6-1.194-2.914-3.36-5.007-4.452-4.46-1.09.547-.838 3.278.581 6.09z"></path><path fill="#fff" d="M17.16 24.605a9.276 9.276 0 0 0-.933 4.072c0 4.855 3.656 8.79 8.168 8.79 4.51 0 8.167-3.935 8.167-8.79 0-1.43-.324-2.777-.887-3.97-4.157 2.119-11.768.566-14.515-.102zm6.513-8.197c0 1.318-.873 2.387-1.95 2.387-1.078 0-1.95-1.069-1.95-2.387 0-1.319.872-2.388 1.95-2.388 1.077 0 1.95 1.07 1.95 2.388zm5.6.013c0 1.318-.873 2.387-1.951 2.387-1.076 0-1.95-1.069-1.95-2.387 0-1.319.874-2.387 1.95-2.387 1.078 0 1.95 1.068 1.95 2.387z"></path><path fill="#F5A519" d="M24.699 19.461c-2.715 0-5.087.635-6.403 1.58.33.778 1.326 1.383 2.303 1.944 1.18.678 3.118 1.138 4.093 1.138.9 0 3.128-.607 4.332-1.393.846-.552 1.739-1.04 2.064-1.698-1.319-.94-3.683-1.57-6.39-1.57Z"></path><path fill="#000" d="M23.371 16.42c0 .835-.546 1.512-1.22 1.512-.673 0-1.22-.677-1.22-1.511 0-.835.547-1.511 1.22-1.511.674 0 1.22.676 1.22 1.51Z"></path><path fill="#fff" d="M22.916 16.077c0 .337-.229.61-.511.61-.283 0-.511-.273-.511-.61 0-.336.228-.609.51-.609.283 0 .512.273.512.61Z"></path><path fill="#000" d="M26.368 16.813a.24.24 0 0 1-.236-.198 1.31 1.31 0 0 1-.02-.226c0-.639.454-1.158 1.01-1.158.555 0 1.008.52 1.008 1.158 0 .056-.003.11-.01.164a.24.24 0 0 1-.477-.06.74.74 0 0 0 .008-.104c0-.374-.238-.678-.53-.678-.291 0-.53.304-.53.678 0 .048.006.096.014.142a.24.24 0 0 1-.237.282Z"></path><path fill="#8A3322" d="M19.257 20.647s1.5 1.284 2.879 1.668c1.613.448 3.943.236 4.826-.06 1.606-.539 3.312-1.7 3.312-1.7s-1.508 1.153-3.063 2.17c-.782.51-1.638 1.238-3.44.847-.456-.098-1.274-.652-1.534-.802-1.33-.77-2.668-1.812-2.98-2.123Z"></path><path fill="#D42E19" d="M20.912 27.49v4.348s-1.797.85-3.406-.685c-.617-.588.33-4.773.33-4.773l3.076 1.11Z"></path><path fill="#B82C22" d="m17.593 26.65 3.293 2.637s.055-1.648-.016-2.118c-.072-.469-3.277-.752-3.277-.752"></path><path fill="#D42E19" d="M24.698 28.232a16.81 16.81 0 0 1-11.141-4.175c-.075-.065-.052-.275-.052-.275s.118-.459.315-1.559c.138-.769.45-1.712.615-1.712.106.087.233.203.359.32.226.213.445.431.517.5a13.644 13.644 0 0 0 9.387 3.7 13.68 13.68 0 0 0 9.381-3.695c.021-.02.575.699.824 1.43.267.782.536 1.633.29 1.827a16.851 16.851 0 0 1-10.495 3.639Z"></path></svg>