<svg t="1624701310625" class="icon" viewBox="0 0 1025 1024" version="1.1" xmlns="http://www.w3.org/2000/svg" p-id="872" width="200" height="200"><path d="M156.924765 0.016488H864.218207A156.923625 156.923625 0 0 1 1023.416087 156.37155v709.567697a156.923625 156.923625 0 0 1-159.19788 157.492189H156.924765A156.923625 156.923625 0 0 1 0.00114 865.939247V156.37155A156.923625 156.923625 0 0 1 156.924765 0.016488z" fill="#0084FF" p-id="873"></path><path d="M239.935089 529.349442h107.458569v-170.569158h-52.307875c-14.78266 32.976704-28.428193 56.856386-56.856386 69.933355a61.404897 61.404897 0 0 1-40.368034 3.979947c11.939841 0 52.876439-148.395167 72.776174-176.254797a76.756121 76.756121 0 0 1 56.856386-28.428193 311.572995 311.572995 0 0 1-23.879682 85.284579h199.565915v45.485109H397.995842v170.569158h125.084049v46.053673H392.878767c0 9.665586 0 33.545268-3.411383 43.210853 0 0 66.521972 70.501919 101.772931 113.712772v80.736068c-37.525215-50.602184-113.712772-145.552348-113.712772-145.552348a357.626668 357.626668 0 0 1-113.712772 165.452083H188.764341s143.846657-159.766445 155.217934-256.990865H193.312852z m304.181665-219.46565H795.990544v458.831035h-103.478623l-76.187557 63.110588-30.702449-63.679152h-41.505161z m204.114425 43.779417h-157.492189v361.038051h8.528458l27.291065 56.856386 69.364791-56.856386h52.307875z" fill="#FFFFFF" p-id="874"></path></svg>