<?xml version="1.0" standalone="no"?>
<!DOCTYPE svg PUBLIC "-//W3C//DTD SVG 20010904//EN"
 "http://www.w3.org/TR/2001/REC-SVG-20010904/DTD/svg10.dtd">
<svg version="1.0" xmlns="http://www.w3.org/2000/svg"
 width="750.000000pt" height="750.000000pt" viewBox="0 0 750.000000 750.000000"
 preserveAspectRatio="xMidYMid meet">
<g transform="translate(0.000000,750.000000) scale(0.100000,-0.100000)"
fill="#eb84d9" stroke="none">
<path d="M4619 6205 c-164 -40 -323 -155 -428 -308 -50 -74 -117 -222 -142
-317 -19 -71 -23 -110 -23 -235 1 -441 153 -880 357 -1035 79 -59 153 -83 257
-82 355 2 635 334 727 862 12 66 17 153 17 285 0 164 -3 202 -22 279 -69 273
-240 481 -450 546 -76 24 -207 26 -293 5z"/>
<path d="M2792 6150 c-279 -38 -487 -256 -579 -609 -35 -134 -43 -376 -18
-506 81 -411 342 -763 597 -804 162 -27 326 49 424 196 118 177 179 450 190
843 5 180 4 216 -14 300 -52 254 -190 460 -363 543 -83 40 -142 49 -237 37z"/>
<path d="M5910 4396 c-72 -21 -118 -43 -189 -90 -254 -170 -562 -632 -626
-941 -21 -100 -21 -260 0 -338 48 -183 178 -316 364 -371 70 -21 202 -21 272
0 227 68 451 296 614 629 87 177 100 236 100 455 0 212 -12 281 -76 418 -47
102 -127 190 -202 223 -63 27 -190 35 -257 15z"/>
<path d="M1635 4386 c-243 -77 -474 -375 -554 -716 -64 -266 -15 -508 151
-753 166 -246 430 -349 638 -250 226 106 388 387 444 774 49 333 -23 580 -228
784 -145 144 -314 204 -451 161z"/>
<path d="M3610 3506 c-180 -50 -301 -151 -579 -481 -236 -281 -350 -394 -593
-588 -220 -176 -283 -240 -333 -342 -138 -277 -40 -603 223 -743 178 -95 450
-97 787 -7 72 19 189 51 260 70 325 88 510 85 1100 -15 371 -64 587 -70 773
-24 254 63 383 225 386 484 1 100 -1 109 -32 172 -56 114 -131 166 -420 295
-413 184 -447 214 -729 636 -80 120 -172 252 -206 294 -105 131 -224 214 -354
248 -68 18 -220 18 -283 1z"/>
</g>
</svg>
