<svg xmlns="http://www.w3.org/2000/svg" xmlns:xlink="http://www.w3.org/1999/xlink" width="500" zoomAndPan="magnify" viewBox="0 0 375 374.999991" height="500" preserveAspectRatio="xMidYMid meet" version="1.0"><defs><g/><clipPath id="51048f3102"><path d="M 187.5 0 C 83.945312 0 0 83.945312 0 187.5 C 0 291.054688 83.945312 375 187.5 375 C 291.054688 375 375 291.054688 375 187.5 C 375 83.945312 291.054688 0 187.5 0 " clip-rule="nonzero"/></clipPath></defs><g clip-path="url(#51048f3102)"><rect x="-37.5" width="450" fill="#000000" y="-37.499999" height="449.999989" fill-opacity="1"/></g><g fill="#ff00ff" fill-opacity="1"><g transform="translate(43.588074, 227.971286)"><g><path d="M 16.234375 0.703125 C 13.992188 0.703125 12.195312 0.0234375 10.84375 -1.328125 C 9.488281 -2.679688 8.8125 -4.519531 8.8125 -6.84375 L 8.8125 -74.65625 C 8.8125 -76.894531 9.445312 -78.628906 10.71875 -79.859375 C 12 -81.097656 13.757812 -81.71875 16 -81.71875 L 44.515625 -81.71875 C 53.242188 -81.71875 60.039062 -79.535156 64.90625 -75.171875 C 69.78125 -70.804688 72.21875 -64.679688 72.21875 -56.796875 C 72.21875 -48.921875 69.78125 -42.78125 64.90625 -38.375 C 60.039062 -33.96875 53.242188 -31.765625 44.515625 -31.765625 L 23.765625 -31.765625 L 23.765625 -6.84375 C 23.765625 -4.519531 23.085938 -2.679688 21.734375 -1.328125 C 20.378906 0.0234375 18.546875 0.703125 16.234375 0.703125 Z M 42.65625 -43.234375 C 52.9375 -43.234375 58.078125 -47.71875 58.078125 -56.6875 C 58.078125 -65.644531 52.9375 -70.125 42.65625 -70.125 L 23.765625 -70.125 L 23.765625 -43.234375 Z M 42.65625 -43.234375 "/></g></g></g><g fill="#ff00ff" fill-opacity="1"><g transform="translate(128.205659, 227.971286)"><g><path d="M 52.390625 -15.53125 C 53.710938 -15.53125 54.773438 -15.023438 55.578125 -14.015625 C 56.390625 -13.015625 56.796875 -11.664062 56.796875 -9.96875 C 56.796875 -7.570312 55.367188 -5.5625 52.515625 -3.9375 C 49.890625 -2.46875 46.914062 -1.289062 43.59375 -0.40625 C 40.269531 0.476562 37.097656 0.921875 34.078125 0.921875 C 24.960938 0.921875 17.738281 -1.703125 12.40625 -6.953125 C 7.070312 -12.210938 4.40625 -19.398438 4.40625 -28.515625 C 4.40625 -34.316406 5.5625 -39.457031 7.875 -43.9375 C 10.195312 -48.414062 13.460938 -51.890625 17.671875 -54.359375 C 21.890625 -56.835938 26.664062 -58.078125 32 -58.078125 C 37.09375 -58.078125 41.53125 -56.957031 45.3125 -54.71875 C 49.101562 -52.476562 52.039062 -49.304688 54.125 -45.203125 C 56.21875 -41.109375 57.265625 -36.28125 57.265625 -30.71875 C 57.265625 -27.394531 55.796875 -25.734375 52.859375 -25.734375 L 18.65625 -25.734375 C 19.125 -20.398438 20.632812 -16.476562 23.1875 -13.96875 C 25.738281 -11.457031 29.445312 -10.203125 34.3125 -10.203125 C 36.78125 -10.203125 38.960938 -10.507812 40.859375 -11.125 C 42.753906 -11.75 44.898438 -12.597656 47.296875 -13.671875 C 49.617188 -14.910156 51.316406 -15.53125 52.390625 -15.53125 Z M 32.34375 -47.875 C 28.40625 -47.875 25.253906 -46.632812 22.890625 -44.15625 C 20.535156 -41.6875 19.125 -38.132812 18.65625 -33.5 L 44.859375 -33.5 C 44.703125 -38.21875 43.539062 -41.789062 41.375 -44.21875 C 39.21875 -46.65625 36.207031 -47.875 32.34375 -47.875 Z M 32.34375 -47.875 "/></g></g></g><g fill="#ff00ff" fill-opacity="1"><g transform="translate(197.870231, 227.971286)"><g><path d="M 40.453125 -58.078125 C 47.253906 -58.078125 52.316406 -56.144531 55.640625 -52.28125 C 58.960938 -48.414062 60.625 -42.582031 60.625 -34.78125 L 60.625 -6.265625 C 60.625 -4.097656 59.984375 -2.394531 58.703125 -1.15625 C 57.429688 0.0820312 55.675781 0.703125 53.4375 0.703125 C 51.195312 0.703125 49.421875 0.0820312 48.109375 -1.15625 C 46.796875 -2.394531 46.140625 -4.097656 46.140625 -6.265625 L 46.140625 -33.96875 C 46.140625 -38.375 45.304688 -41.578125 43.640625 -43.578125 C 41.984375 -45.585938 39.375 -46.59375 35.8125 -46.59375 C 31.644531 -46.59375 28.304688 -45.28125 25.796875 -42.65625 C 23.285156 -40.03125 22.03125 -36.515625 22.03125 -32.109375 L 22.03125 -6.265625 C 22.03125 -4.097656 21.367188 -2.394531 20.046875 -1.15625 C 18.734375 0.0820312 16.957031 0.703125 14.71875 0.703125 C 12.476562 0.703125 10.71875 0.0820312 9.4375 -1.15625 C 8.164062 -2.394531 7.53125 -4.097656 7.53125 -6.265625 L 7.53125 -51.125 C 7.53125 -53.132812 8.1875 -54.753906 9.5 -55.984375 C 10.8125 -57.222656 12.59375 -57.84375 14.84375 -57.84375 C 16.851562 -57.84375 18.492188 -57.242188 19.765625 -56.046875 C 21.035156 -54.847656 21.671875 -53.285156 21.671875 -51.359375 L 21.671875 -48.21875 C 23.609375 -51.382812 26.195312 -53.816406 29.4375 -55.515625 C 32.6875 -57.222656 36.359375 -58.078125 40.453125 -58.078125 Z M 40.453125 -58.078125 "/></g></g></g><g fill="#ff00ff" fill-opacity="1"><g transform="translate(273.794166, 227.971286)"><g><path d="M 55.53125 -57.84375 C 57.6875 -57.84375 59.421875 -57.222656 60.734375 -55.984375 C 62.054688 -54.753906 62.71875 -53.09375 62.71875 -51 L 62.71875 -5.21875 C 62.71875 3.664062 60.242188 10.390625 55.296875 14.953125 C 50.347656 19.515625 43.046875 21.796875 33.390625 21.796875 C 24.960938 21.796875 17.925781 20.210938 12.28125 17.046875 C 9.425781 15.335938 8 13.285156 8 10.890625 C 8 9.191406 8.40625 7.835938 9.21875 6.828125 C 10.03125 5.828125 11.09375 5.328125 12.40625 5.328125 C 13.101562 5.328125 13.953125 5.5 14.953125 5.84375 C 15.953125 6.195312 16.992188 6.609375 18.078125 7.078125 C 20.859375 8.234375 23.347656 9.117188 25.546875 9.734375 C 27.753906 10.359375 30.289062 10.671875 33.15625 10.671875 C 43.28125 10.671875 48.34375 5.722656 48.34375 -4.171875 L 48.34375 -11.59375 C 46.644531 -8.425781 44.171875 -5.972656 40.921875 -4.234375 C 37.671875 -2.492188 33.960938 -1.625 29.796875 -1.625 C 24.847656 -1.625 20.457031 -2.800781 16.625 -5.15625 C 12.800781 -7.507812 9.804688 -10.8125 7.640625 -15.0625 C 5.484375 -19.320312 4.40625 -24.234375 4.40625 -29.796875 C 4.40625 -35.359375 5.46875 -40.28125 7.59375 -44.5625 C 9.71875 -48.851562 12.710938 -52.175781 16.578125 -54.53125 C 20.441406 -56.894531 24.847656 -58.078125 29.796875 -58.078125 C 33.960938 -58.078125 37.671875 -57.207031 40.921875 -55.46875 C 44.171875 -53.726562 46.644531 -51.273438 48.34375 -48.109375 L 48.34375 -51.125 C 48.34375 -53.132812 49 -54.753906 50.3125 -55.984375 C 51.625 -57.222656 53.363281 -57.84375 55.53125 -57.84375 Z M 33.625 -12.875 C 38.257812 -12.875 41.867188 -14.378906 44.453125 -17.390625 C 47.046875 -20.398438 48.34375 -24.535156 48.34375 -29.796875 C 48.34375 -35.128906 47.046875 -39.300781 44.453125 -42.3125 C 41.867188 -45.320312 38.257812 -46.828125 33.625 -46.828125 C 29.0625 -46.828125 25.460938 -45.320312 22.828125 -42.3125 C 20.203125 -39.300781 18.890625 -35.128906 18.890625 -29.796875 C 18.890625 -24.535156 20.203125 -20.398438 22.828125 -17.390625 C 25.460938 -14.378906 29.0625 -12.875 33.625 -12.875 Z M 33.625 -12.875 "/></g></g></g><g fill="#00ffff" fill-opacity="1"><g transform="translate(31.411929, 224.7087)"><g><path d="M 16.234375 0.703125 C 13.992188 0.703125 12.195312 0.0234375 10.84375 -1.328125 C 9.488281 -2.679688 8.8125 -4.519531 8.8125 -6.84375 L 8.8125 -74.65625 C 8.8125 -76.894531 9.445312 -78.628906 10.71875 -79.859375 C 12 -81.097656 13.757812 -81.71875 16 -81.71875 L 44.515625 -81.71875 C 53.242188 -81.71875 60.039062 -79.535156 64.90625 -75.171875 C 69.78125 -70.804688 72.21875 -64.679688 72.21875 -56.796875 C 72.21875 -48.921875 69.78125 -42.78125 64.90625 -38.375 C 60.039062 -33.96875 53.242188 -31.765625 44.515625 -31.765625 L 23.765625 -31.765625 L 23.765625 -6.84375 C 23.765625 -4.519531 23.085938 -2.679688 21.734375 -1.328125 C 20.378906 0.0234375 18.546875 0.703125 16.234375 0.703125 Z M 42.65625 -43.234375 C 52.9375 -43.234375 58.078125 -47.71875 58.078125 -56.6875 C 58.078125 -65.644531 52.9375 -70.125 42.65625 -70.125 L 23.765625 -70.125 L 23.765625 -43.234375 Z M 42.65625 -43.234375 "/></g></g></g><g fill="#00ffff" fill-opacity="1"><g transform="translate(116.029513, 224.7087)"><g><path d="M 52.390625 -15.53125 C 53.710938 -15.53125 54.773438 -15.023438 55.578125 -14.015625 C 56.390625 -13.015625 56.796875 -11.664062 56.796875 -9.96875 C 56.796875 -7.570312 55.367188 -5.5625 52.515625 -3.9375 C 49.890625 -2.46875 46.914062 -1.289062 43.59375 -0.40625 C 40.269531 0.476562 37.097656 0.921875 34.078125 0.921875 C 24.960938 0.921875 17.738281 -1.703125 12.40625 -6.953125 C 7.070312 -12.210938 4.40625 -19.398438 4.40625 -28.515625 C 4.40625 -34.316406 5.5625 -39.457031 7.875 -43.9375 C 10.195312 -48.414062 13.460938 -51.890625 17.671875 -54.359375 C 21.890625 -56.835938 26.664062 -58.078125 32 -58.078125 C 37.09375 -58.078125 41.53125 -56.957031 45.3125 -54.71875 C 49.101562 -52.476562 52.039062 -49.304688 54.125 -45.203125 C 56.21875 -41.109375 57.265625 -36.28125 57.265625 -30.71875 C 57.265625 -27.394531 55.796875 -25.734375 52.859375 -25.734375 L 18.65625 -25.734375 C 19.125 -20.398438 20.632812 -16.476562 23.1875 -13.96875 C 25.738281 -11.457031 29.445312 -10.203125 34.3125 -10.203125 C 36.78125 -10.203125 38.960938 -10.507812 40.859375 -11.125 C 42.753906 -11.75 44.898438 -12.597656 47.296875 -13.671875 C 49.617188 -14.910156 51.316406 -15.53125 52.390625 -15.53125 Z M 32.34375 -47.875 C 28.40625 -47.875 25.253906 -46.632812 22.890625 -44.15625 C 20.535156 -41.6875 19.125 -38.132812 18.65625 -33.5 L 44.859375 -33.5 C 44.703125 -38.21875 43.539062 -41.789062 41.375 -44.21875 C 39.21875 -46.65625 36.207031 -47.875 32.34375 -47.875 Z M 32.34375 -47.875 "/></g></g></g><g fill="#00ffff" fill-opacity="1"><g transform="translate(185.694085, 224.7087)"><g><path d="M 40.453125 -58.078125 C 47.253906 -58.078125 52.316406 -56.144531 55.640625 -52.28125 C 58.960938 -48.414062 60.625 -42.582031 60.625 -34.78125 L 60.625 -6.265625 C 60.625 -4.097656 59.984375 -2.394531 58.703125 -1.15625 C 57.429688 0.0820312 55.675781 0.703125 53.4375 0.703125 C 51.195312 0.703125 49.421875 0.0820312 48.109375 -1.15625 C 46.796875 -2.394531 46.140625 -4.097656 46.140625 -6.265625 L 46.140625 -33.96875 C 46.140625 -38.375 45.304688 -41.578125 43.640625 -43.578125 C 41.984375 -45.585938 39.375 -46.59375 35.8125 -46.59375 C 31.644531 -46.59375 28.304688 -45.28125 25.796875 -42.65625 C 23.285156 -40.03125 22.03125 -36.515625 22.03125 -32.109375 L 22.03125 -6.265625 C 22.03125 -4.097656 21.367188 -2.394531 20.046875 -1.15625 C 18.734375 0.0820312 16.957031 0.703125 14.71875 0.703125 C 12.476562 0.703125 10.71875 0.0820312 9.4375 -1.15625 C 8.164062 -2.394531 7.53125 -4.097656 7.53125 -6.265625 L 7.53125 -51.125 C 7.53125 -53.132812 8.1875 -54.753906 9.5 -55.984375 C 10.8125 -57.222656 12.59375 -57.84375 14.84375 -57.84375 C 16.851562 -57.84375 18.492188 -57.242188 19.765625 -56.046875 C 21.035156 -54.847656 21.671875 -53.285156 21.671875 -51.359375 L 21.671875 -48.21875 C 23.609375 -51.382812 26.195312 -53.816406 29.4375 -55.515625 C 32.6875 -57.222656 36.359375 -58.078125 40.453125 -58.078125 Z M 40.453125 -58.078125 "/></g></g></g><g fill="#00ffff" fill-opacity="1"><g transform="translate(261.61802, 224.7087)"><g><path d="M 55.53125 -57.84375 C 57.6875 -57.84375 59.421875 -57.222656 60.734375 -55.984375 C 62.054688 -54.753906 62.71875 -53.09375 62.71875 -51 L 62.71875 -5.21875 C 62.71875 3.664062 60.242188 10.390625 55.296875 14.953125 C 50.347656 19.515625 43.046875 21.796875 33.390625 21.796875 C 24.960938 21.796875 17.925781 20.210938 12.28125 17.046875 C 9.425781 15.335938 8 13.285156 8 10.890625 C 8 9.191406 8.40625 7.835938 9.21875 6.828125 C 10.03125 5.828125 11.09375 5.328125 12.40625 5.328125 C 13.101562 5.328125 13.953125 5.5 14.953125 5.84375 C 15.953125 6.195312 16.992188 6.609375 18.078125 7.078125 C 20.859375 8.234375 23.347656 9.117188 25.546875 9.734375 C 27.753906 10.359375 30.289062 10.671875 33.15625 10.671875 C 43.28125 10.671875 48.34375 5.722656 48.34375 -4.171875 L 48.34375 -11.59375 C 46.644531 -8.425781 44.171875 -5.972656 40.921875 -4.234375 C 37.671875 -2.492188 33.960938 -1.625 29.796875 -1.625 C 24.847656 -1.625 20.457031 -2.800781 16.625 -5.15625 C 12.800781 -7.507812 9.804688 -10.8125 7.640625 -15.0625 C 5.484375 -19.320312 4.40625 -24.234375 4.40625 -29.796875 C 4.40625 -35.359375 5.46875 -40.28125 7.59375 -44.5625 C 9.71875 -48.851562 12.710938 -52.175781 16.578125 -54.53125 C 20.441406 -56.894531 24.847656 -58.078125 29.796875 -58.078125 C 33.960938 -58.078125 37.671875 -57.207031 40.921875 -55.46875 C 44.171875 -53.726562 46.644531 -51.273438 48.34375 -48.109375 L 48.34375 -51.125 C 48.34375 -53.132812 49 -54.753906 50.3125 -55.984375 C 51.625 -57.222656 53.363281 -57.84375 55.53125 -57.84375 Z M 33.625 -12.875 C 38.257812 -12.875 41.867188 -14.378906 44.453125 -17.390625 C 47.046875 -20.398438 48.34375 -24.535156 48.34375 -29.796875 C 48.34375 -35.128906 47.046875 -39.300781 44.453125 -42.3125 C 41.867188 -45.320312 38.257812 -46.828125 33.625 -46.828125 C 29.0625 -46.828125 25.460938 -45.320312 22.828125 -42.3125 C 20.203125 -39.300781 18.890625 -35.128906 18.890625 -29.796875 C 18.890625 -24.535156 20.203125 -20.398438 22.828125 -17.390625 C 25.460938 -14.378906 29.0625 -12.875 33.625 -12.875 Z M 33.625 -12.875 "/></g></g></g><g fill="#ff66c4" fill-opacity="1"><g transform="translate(37.500002, 226.339994)"><g><path d="M 16.234375 0.703125 C 13.992188 0.703125 12.195312 0.0234375 10.84375 -1.328125 C 9.488281 -2.679688 8.8125 -4.519531 8.8125 -6.84375 L 8.8125 -74.65625 C 8.8125 -76.894531 9.445312 -78.628906 10.71875 -79.859375 C 12 -81.097656 13.757812 -81.71875 16 -81.71875 L 44.515625 -81.71875 C 53.242188 -81.71875 60.039062 -79.535156 64.90625 -75.171875 C 69.78125 -70.804688 72.21875 -64.679688 72.21875 -56.796875 C 72.21875 -48.921875 69.78125 -42.78125 64.90625 -38.375 C 60.039062 -33.96875 53.242188 -31.765625 44.515625 -31.765625 L 23.765625 -31.765625 L 23.765625 -6.84375 C 23.765625 -4.519531 23.085938 -2.679688 21.734375 -1.328125 C 20.378906 0.0234375 18.546875 0.703125 16.234375 0.703125 Z M 42.65625 -43.234375 C 52.9375 -43.234375 58.078125 -47.71875 58.078125 -56.6875 C 58.078125 -65.644531 52.9375 -70.125 42.65625 -70.125 L 23.765625 -70.125 L 23.765625 -43.234375 Z M 42.65625 -43.234375 "/></g></g></g><g fill="#ff66c4" fill-opacity="1"><g transform="translate(122.117586, 226.339994)"><g><path d="M 52.390625 -15.53125 C 53.710938 -15.53125 54.773438 -15.023438 55.578125 -14.015625 C 56.390625 -13.015625 56.796875 -11.664062 56.796875 -9.96875 C 56.796875 -7.570312 55.367188 -5.5625 52.515625 -3.9375 C 49.890625 -2.46875 46.914062 -1.289062 43.59375 -0.40625 C 40.269531 0.476562 37.097656 0.921875 34.078125 0.921875 C 24.960938 0.921875 17.738281 -1.703125 12.40625 -6.953125 C 7.070312 -12.210938 4.40625 -19.398438 4.40625 -28.515625 C 4.40625 -34.316406 5.5625 -39.457031 7.875 -43.9375 C 10.195312 -48.414062 13.460938 -51.890625 17.671875 -54.359375 C 21.890625 -56.835938 26.664062 -58.078125 32 -58.078125 C 37.09375 -58.078125 41.53125 -56.957031 45.3125 -54.71875 C 49.101562 -52.476562 52.039062 -49.304688 54.125 -45.203125 C 56.21875 -41.109375 57.265625 -36.28125 57.265625 -30.71875 C 57.265625 -27.394531 55.796875 -25.734375 52.859375 -25.734375 L 18.65625 -25.734375 C 19.125 -20.398438 20.632812 -16.476562 23.1875 -13.96875 C 25.738281 -11.457031 29.445312 -10.203125 34.3125 -10.203125 C 36.78125 -10.203125 38.960938 -10.507812 40.859375 -11.125 C 42.753906 -11.75 44.898438 -12.597656 47.296875 -13.671875 C 49.617188 -14.910156 51.316406 -15.53125 52.390625 -15.53125 Z M 32.34375 -47.875 C 28.40625 -47.875 25.253906 -46.632812 22.890625 -44.15625 C 20.535156 -41.6875 19.125 -38.132812 18.65625 -33.5 L 44.859375 -33.5 C 44.703125 -38.21875 43.539062 -41.789062 41.375 -44.21875 C 39.21875 -46.65625 36.207031 -47.875 32.34375 -47.875 Z M 32.34375 -47.875 "/></g></g></g><g fill="#ff66c4" fill-opacity="1"><g transform="translate(191.782158, 226.339994)"><g><path d="M 40.453125 -58.078125 C 47.253906 -58.078125 52.316406 -56.144531 55.640625 -52.28125 C 58.960938 -48.414062 60.625 -42.582031 60.625 -34.78125 L 60.625 -6.265625 C 60.625 -4.097656 59.984375 -2.394531 58.703125 -1.15625 C 57.429688 0.0820312 55.675781 0.703125 53.4375 0.703125 C 51.195312 0.703125 49.421875 0.0820312 48.109375 -1.15625 C 46.796875 -2.394531 46.140625 -4.097656 46.140625 -6.265625 L 46.140625 -33.96875 C 46.140625 -38.375 45.304688 -41.578125 43.640625 -43.578125 C 41.984375 -45.585938 39.375 -46.59375 35.8125 -46.59375 C 31.644531 -46.59375 28.304688 -45.28125 25.796875 -42.65625 C 23.285156 -40.03125 22.03125 -36.515625 22.03125 -32.109375 L 22.03125 -6.265625 C 22.03125 -4.097656 21.367188 -2.394531 20.046875 -1.15625 C 18.734375 0.0820312 16.957031 0.703125 14.71875 0.703125 C 12.476562 0.703125 10.71875 0.0820312 9.4375 -1.15625 C 8.164062 -2.394531 7.53125 -4.097656 7.53125 -6.265625 L 7.53125 -51.125 C 7.53125 -53.132812 8.1875 -54.753906 9.5 -55.984375 C 10.8125 -57.222656 12.59375 -57.84375 14.84375 -57.84375 C 16.851562 -57.84375 18.492188 -57.242188 19.765625 -56.046875 C 21.035156 -54.847656 21.671875 -53.285156 21.671875 -51.359375 L 21.671875 -48.21875 C 23.609375 -51.382812 26.195312 -53.816406 29.4375 -55.515625 C 32.6875 -57.222656 36.359375 -58.078125 40.453125 -58.078125 Z M 40.453125 -58.078125 "/></g></g></g><g fill="#ff66c4" fill-opacity="1"><g transform="translate(267.706094, 226.339994)"><g><path d="M 55.53125 -57.84375 C 57.6875 -57.84375 59.421875 -57.222656 60.734375 -55.984375 C 62.054688 -54.753906 62.71875 -53.09375 62.71875 -51 L 62.71875 -5.21875 C 62.71875 3.664062 60.242188 10.390625 55.296875 14.953125 C 50.347656 19.515625 43.046875 21.796875 33.390625 21.796875 C 24.960938 21.796875 17.925781 20.210938 12.28125 17.046875 C 9.425781 15.335938 8 13.285156 8 10.890625 C 8 9.191406 8.40625 7.835938 9.21875 6.828125 C 10.03125 5.828125 11.09375 5.328125 12.40625 5.328125 C 13.101562 5.328125 13.953125 5.5 14.953125 5.84375 C 15.953125 6.195312 16.992188 6.609375 18.078125 7.078125 C 20.859375 8.234375 23.347656 9.117188 25.546875 9.734375 C 27.753906 10.359375 30.289062 10.671875 33.15625 10.671875 C 43.28125 10.671875 48.34375 5.722656 48.34375 -4.171875 L 48.34375 -11.59375 C 46.644531 -8.425781 44.171875 -5.972656 40.921875 -4.234375 C 37.671875 -2.492188 33.960938 -1.625 29.796875 -1.625 C 24.847656 -1.625 20.457031 -2.800781 16.625 -5.15625 C 12.800781 -7.507812 9.804688 -10.8125 7.640625 -15.0625 C 5.484375 -19.320312 4.40625 -24.234375 4.40625 -29.796875 C 4.40625 -35.359375 5.46875 -40.28125 7.59375 -44.5625 C 9.71875 -48.851562 12.710938 -52.175781 16.578125 -54.53125 C 20.441406 -56.894531 24.847656 -58.078125 29.796875 -58.078125 C 33.960938 -58.078125 37.671875 -57.207031 40.921875 -55.46875 C 44.171875 -53.726562 46.644531 -51.273438 48.34375 -48.109375 L 48.34375 -51.125 C 48.34375 -53.132812 49 -54.753906 50.3125 -55.984375 C 51.625 -57.222656 53.363281 -57.84375 55.53125 -57.84375 Z M 33.625 -12.875 C 38.257812 -12.875 41.867188 -14.378906 44.453125 -17.390625 C 47.046875 -20.398438 48.34375 -24.535156 48.34375 -29.796875 C 48.34375 -35.128906 47.046875 -39.300781 44.453125 -42.3125 C 41.867188 -45.320312 38.257812 -46.828125 33.625 -46.828125 C 29.0625 -46.828125 25.460938 -45.320312 22.828125 -42.3125 C 20.203125 -39.300781 18.890625 -35.128906 18.890625 -29.796875 C 18.890625 -24.535156 20.203125 -20.398438 22.828125 -17.390625 C 25.460938 -14.378906 29.0625 -12.875 33.625 -12.875 Z M 33.625 -12.875 "/></g></g></g><g fill="#ff00ff" fill-opacity="1"><g transform="translate(43.588074, 343.885507)"><g/></g></g><g fill="#00ffff" fill-opacity="1"><g transform="translate(31.411929, 340.622921)"><g/></g></g><g fill="#ff66c4" fill-opacity="1"><g transform="translate(37.500002, 342.254215)"><g/></g></g></svg>